<svg width="21" height="21" viewBox="0 0 21 21" fill="none" xmlns="http://www.w3.org/2000/svg">
<path d="M10.1102 20.319C8.34615 20.3181 6.6136 19.8549 5.08759 18.9763L1.1628 20.319L1.96895 16.1939C0.71227 14.4902 0.0374029 12.4321 0.0430033 10.3203C0.0427314 8.3423 0.633275 6.4086 1.73994 4.76384C2.84661 3.11908 4.41968 1.83715 6.26018 1.08019C8.10069 0.32322 10.1259 0.125222 12.0798 0.511252C14.0336 0.897282 15.8283 1.84999 17.2368 3.24887C18.6452 4.64775 19.6042 6.42997 19.9925 8.37009C20.3807 10.3102 20.1808 12.3211 19.4179 14.1483C18.6551 15.9756 17.3636 17.5372 15.7068 18.6356C14.05 19.7339 12.1023 20.3198 10.1102 20.319ZM5.26781 17.3412L5.57184 17.5297C7.39153 18.6583 9.5711 19.0687 11.6806 18.68C13.79 18.2914 15.6762 17.1319 16.967 15.4303C18.2578 13.7286 18.8595 11.6085 18.6533 9.48804C18.4472 7.36761 17.4482 5.40088 15.8534 3.97584C14.2586 2.55081 12.1839 1.77096 10.0385 1.79013C7.89312 1.8093 5.83286 2.6261 4.26417 4.0794C2.69549 5.53271 1.7323 7.51699 1.56462 9.64076C1.39693 11.7645 2.03694 13.8736 3.35837 15.5519L3.56885 15.825L3.12864 18.0802L5.26781 17.3412Z" fill="white"/>
<path d="M12.9025 10.916L13.1776 8.77556H11.0467V7.40963C11.0467 6.79086 11.22 6.36879 12.1142 6.36879H13.256V4.45648C12.7036 4.39819 12.1484 4.36992 11.5928 4.37179C9.94202 4.37179 8.82223 5.36892 8.82223 7.20063V8.77829H6.96094V10.9187H8.82223V15.9385C9.59536 15.9385 10.2543 15.9303 11.0467 15.9303V10.9187L12.9025 10.916Z" fill="white"/>
</svg>
