<svg width="21" height="21" viewBox="0 0 21 21" fill="none" xmlns="http://www.w3.org/2000/svg">
<circle cx="10.9958" cy="10.9336" r="10" fill="#FF60D2"/>
<circle cx="10.9958" cy="10.9336" r="10" stroke="white"/>
<path d="M15.9067 12.4529L10.9908 16.4943C10.2355 17.1153 9.00695 17.1153 8.2526 16.4943C7.89865 16.2047 7.69956 15.8221 7.68618 15.4132L7.68618 11.3472L7.68618 7.28116C7.68618 7.26979 7.68546 7.25853 7.68546 7.24763C7.68546 6.82186 7.88681 6.42155 8.25389 6.12064C8.61579 5.82187 9.10251 5.65625 9.62078 5.65625C10.1388 5.65625 10.6253 5.82187 10.9917 6.12349L15.9098 10.1659C16.2748 10.4658 16.4751 10.8648 16.4751 11.29L16.4751 11.3259C16.4751 11.7532 16.2738 12.153 15.9067 12.4529Z" fill="white"/>
</svg>
