<svg width="41" height="41" viewBox="0 0 40 40" fill="none" xmlns="http://www.w3.org/2000/svg"><circle cx="19.8431" cy="19.8431" r="18.3431" transform="matrix(-1 0 0 1 39.8488 0.144531)" fill="white" stroke="white" stroke-width="3"></circle><path d="M11.4222 16.7747H20.967L18.3407 14.1294C17.7453 13.5314 17.4164 12.7335 17.4164 11.8858C17.4164 11.0381 17.7453 10.2402 18.3407 9.64171C19.5693 8.40394 21.5704 8.40394 22.7998 9.64171L30.8063 17.7041C31.4028 18.3016 31.7313 19.0988 31.7313 19.9491V20.0224C31.7313 20.8704 31.4047 21.6664 30.8113 22.2637L22.8007 30.3291C22.2056 30.9305 21.4133 31.2624 20.5693 31.2624C19.7264 31.2624 18.9336 30.9305 18.3431 30.3344C17.7463 29.7345 17.4162 28.9371 17.4162 28.0879C17.4162 27.2402 17.7442 26.4437 18.3405 25.8421L20.9648 23.1984H11.422C9.68965 23.1984 8.28031 21.7577 8.28031 19.9859C8.28055 18.2155 9.68989 16.7747 11.4222 16.7747Z" fill="#88C461"></path></svg>