<svg width="21" height="21" viewBox="0 0 21 21" fill="none" xmlns="http://www.w3.org/2000/svg">
<path d="M10.1102 20.319C8.34612 20.3183 6.61352 19.8551 5.08759 18.9763L1.1628 20.319L1.96895 16.1939C0.71227 14.4902 0.0374029 12.4321 0.0430033 10.3203C0.0427314 8.3423 0.633275 6.4086 1.73994 4.76384C2.84661 3.11908 4.41968 1.83715 6.26018 1.08019C8.10069 0.32322 10.1259 0.125222 12.0798 0.511252C14.0336 0.897282 15.8283 1.84999 17.2368 3.24887C18.6452 4.64775 19.6042 6.42997 19.9925 8.37009C20.3807 10.3102 20.1808 12.3211 19.4179 14.1483C18.6551 15.9756 17.3636 17.5372 15.7068 18.6356C14.05 19.7339 12.1023 20.3198 10.1102 20.319ZM5.26781 17.3412L5.57183 17.5297C7.39236 18.659 9.57301 19.0698 11.6836 18.6811C13.7942 18.2923 15.6814 17.1323 16.9729 15.4299C18.2644 13.7275 18.8665 11.6063 18.6603 9.48474C18.4541 7.36322 17.4546 5.39547 15.859 3.96971C14.2634 2.54394 12.1876 1.7637 10.0411 1.78293C7.8946 1.80215 5.83332 2.61945 4.2639 4.07357C2.69447 5.52768 1.73089 7.51301 1.56326 9.63788C1.39563 11.7627 2.03612 13.8728 3.35837 15.5519L3.56885 15.825L3.12864 18.0802L5.26781 17.3412Z" fill="white"/>
<path d="M5.02202 6.47787C5.02202 6.47787 5.61356 5.45204 6.09505 5.39331C6.57653 5.33457 7.19559 5.33457 7.36342 5.64737C7.53125 5.96017 8.27824 7.77687 8.27824 7.77687C8.31399 7.87788 8.32637 7.98558 8.31446 8.09199C8.30256 8.1984 8.26666 8.30078 8.20946 8.39154C8.01698 8.65573 7.80353 8.90421 7.57115 9.1346C7.50228 9.22817 7.46516 9.34106 7.46516 9.45696C7.46516 9.57285 7.50228 9.68574 7.57115 9.77932C7.98697 10.3979 8.46144 10.9756 8.98809 11.5045C9.77497 12.2885 11.2896 12.8458 11.2896 12.8458C11.3527 12.8534 11.4168 12.8479 11.4777 12.8295C11.5385 12.8112 11.5949 12.7805 11.6431 12.7393C11.7807 12.6027 12.5291 11.6739 12.5291 11.6739C12.6057 11.5842 12.7106 11.5229 12.8267 11.4999C12.9428 11.4768 13.0633 11.4934 13.1688 11.5468C13.5663 11.7285 15.2928 12.5822 15.2928 12.5822C15.3613 12.6169 15.4175 12.6717 15.4537 12.7391C15.4898 12.8065 15.5043 12.8834 15.495 12.9592C15.495 13.2611 15.3712 14.0028 15.1195 14.2527C14.8677 14.5027 14.129 15.2758 13.0202 15.2758C11.9114 15.2758 9.27148 14.3798 7.86554 12.9838C6.4596 11.5878 5.20911 10.17 4.91472 8.88601C4.62032 7.60203 4.65884 7.00785 5.02202 6.47787Z" fill="white"/>
</svg>
