<svg width="13" height="11" viewBox="0 0 13 11" fill="none" xmlns="http://www.w3.org/2000/svg">
<path d="M5.13463 10.2009L0.536684 4.60819C-0.169842 3.74881 -0.169842 2.35111 0.536684 1.49288C0.866127 1.09019 1.30145 0.863688 1.76664 0.848475L6.39258 0.848476L11.0185 0.848475C11.0315 0.848475 11.0443 0.847656 11.0567 0.847656C11.5411 0.847656 11.9965 1.07672 12.3388 1.49436C12.6788 1.9061 12.8672 2.45983 12.8672 3.04947C12.8672 3.63879 12.6788 4.19236 12.3356 4.60918L7.73659 10.2046C7.39532 10.6197 6.94138 10.8477 6.45764 10.8477L6.4168 10.8477C5.93065 10.8477 5.47576 10.6186 5.13463 10.2009Z" fill="#88C461"/>
</svg>
